<svg xmlns="http://www.w3.org/2000/svg" xmlns:xlink="http://www.w3.org/1999/xlink" viewBox="0 0 100 100"><defs><style>.cls-1,.cls-3{fill:none;}.cls-2{clip-path:url(#clip-path);}.cls-3{stroke:#265d8e;stroke-miterlimit:10;stroke-width:54px;}.cls-4{clip-path:url(#clip-path-2);}.cls-5{clip-path:url(#clip-path-3);}.cls-6{fill:url(#New_Pattern_36);}</style><clipPath id="clip-path"><rect id="SVGID" class="cls-1" y="150" width="260" height="100"/></clipPath><clipPath id="clip-path-2"><rect id="SVGID-2" data-name="SVGID" class="cls-1" y="50" width="260" height="100"/></clipPath><clipPath id="clip-path-3"><rect id="SVGID-3" data-name="SVGID" class="cls-1" y="-50" width="260" height="100"/></clipPath><pattern id="New_Pattern_36" data-name="New Pattern 36" width="260" height="200" patternTransform="translate(-240.69 11.92)" patternUnits="userSpaceOnUse" viewBox="0 0 260 200"><rect class="cls-1" width="260" height="200"/><g class="cls-2"><line class="cls-3" y1="250" y2="150"/><line class="cls-3" x1="65" y1="250" x2="65" y2="150"/><line class="cls-3" x1="130" y1="250" x2="130" y2="150"/><line class="cls-3" x1="195" y1="250" x2="195" y2="150"/><line class="cls-3" x1="260" y1="250" x2="260" y2="150"/></g><g class="cls-4"><line class="cls-3" y1="150" y2="50"/><line class="cls-3" x1="65" y1="150" x2="65" y2="50"/><line class="cls-3" x1="130" y1="150" x2="130" y2="50"/><line class="cls-3" x1="195" y1="150" x2="195" y2="50"/><line class="cls-3" x1="260" y1="150" x2="260" y2="50"/></g><g class="cls-5"><line class="cls-3" y1="50" y2="-50"/><line class="cls-3" x1="65" y1="50" x2="65" y2="-50"/><line class="cls-3" x1="130" y1="50" x2="130" y2="-50"/><line class="cls-3" x1="195" y1="50" x2="195" y2="-50"/><line class="cls-3" x1="260" y1="50" x2="260" y2="-50"/></g></pattern></defs><title>Asset 2</title><g id="Layer_2" data-name="Layer 2"><g id="Layer_1-2" data-name="Layer 1"><rect class="cls-6" width="100" height="100"/></g></g></svg>