<svg xmlns="http://www.w3.org/2000/svg" xmlns:xlink="http://www.w3.org/1999/xlink" viewBox="0 0 100 100"><defs><style>.cls-1{fill:none;}.cls-2{clip-path:url(#clip-path);}.cls-3{clip-path:url(#clip-path-2);}.cls-4{fill:#b2a6af;}.cls-5{fill:#faf3e2;stroke:#b2a6af;stroke-miterlimit:10;}.cls-6{fill:url(#New_Pattern_2);}</style><clipPath id="clip-path"><rect id="SVGID" class="cls-1" width="100" height="100"/></clipPath><clipPath id="clip-path-2"><rect id="SVGID-2" data-name="SVGID" class="cls-1" x="-10.29" y="-10.73" width="123.86" height="126.19"/></clipPath><pattern id="New_Pattern_2" data-name="New Pattern 2" width="100" height="100" patternTransform="translate(-121.4 44.41)" patternUnits="userSpaceOnUse" viewBox="0 0 100 100"><rect class="cls-1" width="100" height="100"/><g class="cls-2"><g class="cls-3"><rect class="cls-1" x="86.42" y="-38.46" width="77.76" height="77.76"/><rect class="cls-4" x="86.42" y="-38.46" width="77.76" height="77.76"/><rect class="cls-1" x="86.42" y="39.3" width="77.76" height="77.76"/><rect class="cls-4" x="86.42" y="39.3" width="77.76" height="77.76"/><rect class="cls-1" x="8.66" y="-38.46" width="77.76" height="77.76"/><rect class="cls-4" x="8.66" y="-38.46" width="77.76" height="77.76"/><rect class="cls-1" x="8.66" y="39.3" width="77.76" height="77.76"/><rect class="cls-4" x="8.66" y="39.3" width="77.76" height="77.76"/><rect class="cls-1" x="-69.1" y="-38.46" width="77.76" height="77.76"/><rect class="cls-4" x="-69.1" y="-38.46" width="77.76" height="77.76"/><rect class="cls-1" x="-69.1" y="39.3" width="77.76" height="77.76"/><rect class="cls-4" x="-69.1" y="39.3" width="77.76" height="77.76"/></g><path class="cls-5" d="M28.71,126.24l-2.47,2.47a1.76,1.76,0,0,1-2.48,0l-2.47-2.47a1.76,1.76,0,0,1,0-2.48l2.47-2.47a1.76,1.76,0,0,1,2.48,0l2.47,2.47A1.76,1.76,0,0,1,28.71,126.24Z"/><path class="cls-5" d="M35,120l-2.47,2.47a1.76,1.76,0,0,1-2.48,0L27.54,120a1.76,1.76,0,0,1,0-2.48L30,115a1.76,1.76,0,0,1,2.48,0L35,117.51A1.76,1.76,0,0,1,35,120Z"/><path class="cls-5" d="M41.21,113.74l-2.47,2.47a1.76,1.76,0,0,1-2.48,0l-2.47-2.47a1.76,1.76,0,0,1,0-2.48l2.47-2.47a1.76,1.76,0,0,1,2.48,0l2.47,2.47A1.76,1.76,0,0,1,41.21,113.74Z"/><path class="cls-5" d="M47.46,107.49,45,110a1.76,1.76,0,0,1-2.48,0L40,107.49A1.76,1.76,0,0,1,40,105l2.47-2.47a1.76,1.76,0,0,1,2.48,0L47.46,105A1.76,1.76,0,0,1,47.46,107.49Z"/><path class="cls-5" d="M53.71,101.24l-2.47,2.47a1.76,1.76,0,0,1-2.48,0l-2.47-2.47a1.76,1.76,0,0,1,0-2.48l2.47-2.47a1.76,1.76,0,0,1,2.48,0l2.47,2.47A1.76,1.76,0,0,1,53.71,101.24Z"/><path class="cls-5" d="M60,95l-2.47,2.47a1.76,1.76,0,0,1-2.48,0L52.54,95a1.76,1.76,0,0,1,0-2.48L55,90a1.76,1.76,0,0,1,2.48,0L60,92.51A1.76,1.76,0,0,1,60,95Z"/><path class="cls-5" d="M66.21,88.74l-2.47,2.47a1.76,1.76,0,0,1-2.48,0l-2.47-2.47a1.76,1.76,0,0,1,0-2.48l2.47-2.47a1.76,1.76,0,0,1,2.48,0l2.47,2.47A1.76,1.76,0,0,1,66.21,88.74Z"/><path class="cls-5" d="M72.46,82.49,70,85a1.76,1.76,0,0,1-2.48,0L65,82.49A1.76,1.76,0,0,1,65,80l2.47-2.47a1.76,1.76,0,0,1,2.48,0L72.46,80A1.76,1.76,0,0,1,72.46,82.49Z"/><path class="cls-5" d="M78.71,76.24l-2.47,2.47a1.76,1.76,0,0,1-2.48,0l-2.47-2.47a1.76,1.76,0,0,1,0-2.48l2.47-2.47a1.76,1.76,0,0,1,2.48,0l2.47,2.47A1.76,1.76,0,0,1,78.71,76.24Z"/><path class="cls-5" d="M85,70l-2.47,2.47a1.76,1.76,0,0,1-2.48,0L77.54,70a1.76,1.76,0,0,1,0-2.48L80,65a1.76,1.76,0,0,1,2.48,0L85,67.51A1.76,1.76,0,0,1,85,70Z"/><path class="cls-5" d="M91.21,63.74l-2.47,2.47a1.76,1.76,0,0,1-2.48,0l-2.47-2.47a1.76,1.76,0,0,1,0-2.48l2.47-2.47a1.76,1.76,0,0,1,2.48,0l2.47,2.47A1.76,1.76,0,0,1,91.21,63.74Z"/><path class="cls-5" d="M97.46,57.49,95,60a1.76,1.76,0,0,1-2.48,0L90,57.49A1.76,1.76,0,0,1,90,55l2.47-2.47a1.76,1.76,0,0,1,2.48,0L97.46,55A1.76,1.76,0,0,1,97.46,57.49Z"/><path class="cls-5" d="M103.71,51.24l-2.47,2.47a1.76,1.76,0,0,1-2.48,0l-2.47-2.47a1.76,1.76,0,0,1,0-2.48l2.47-2.47a1.76,1.76,0,0,1,2.48,0l2.47,2.47A1.76,1.76,0,0,1,103.71,51.24Z"/><path class="cls-5" d="M110,45l-2.47,2.47a1.76,1.76,0,0,1-2.48,0L102.54,45a1.76,1.76,0,0,1,0-2.48L105,40a1.76,1.76,0,0,1,2.48,0L110,42.51A1.76,1.76,0,0,1,110,45Z"/><path class="cls-5" d="M116.21,38.74l-2.47,2.47a1.76,1.76,0,0,1-2.48,0l-2.47-2.47a1.76,1.76,0,0,1,0-2.48l2.47-2.47a1.76,1.76,0,0,1,2.48,0l2.47,2.47A1.76,1.76,0,0,1,116.21,38.74Z"/><path class="cls-5" d="M122.46,32.49,120,35a1.76,1.76,0,0,1-2.48,0L115,32.49A1.76,1.76,0,0,1,115,30l2.47-2.47a1.76,1.76,0,0,1,2.48,0L122.46,30A1.76,1.76,0,0,1,122.46,32.49Z"/><path class="cls-5" d="M128.71,26.24l-2.47,2.47a1.76,1.76,0,0,1-2.48,0l-2.47-2.47a1.76,1.76,0,0,1,0-2.48l2.47-2.47a1.76,1.76,0,0,1,2.48,0l2.47,2.47A1.76,1.76,0,0,1,128.71,26.24Z"/><path class="cls-5" d="M-33.79,63.74l-2.47,2.47a1.76,1.76,0,0,1-2.48,0l-2.47-2.47a1.76,1.76,0,0,1,0-2.48l2.47-2.47a1.76,1.76,0,0,1,2.48,0l2.47,2.47A1.76,1.76,0,0,1-33.79,63.74Z"/><path class="cls-5" d="M-27.54,57.49-30,60a1.76,1.76,0,0,1-2.48,0L-35,57.49A1.76,1.76,0,0,1-35,55l2.47-2.47a1.76,1.76,0,0,1,2.48,0L-27.54,55A1.76,1.76,0,0,1-27.54,57.49Z"/><path class="cls-5" d="M-21.29,51.24l-2.47,2.47a1.76,1.76,0,0,1-2.48,0l-2.47-2.47a1.76,1.76,0,0,1,0-2.48l2.47-2.47a1.76,1.76,0,0,1,2.48,0l2.47,2.47A1.76,1.76,0,0,1-21.29,51.24Z"/><path class="cls-5" d="M-15,45l-2.47,2.47a1.76,1.76,0,0,1-2.48,0L-22.46,45a1.76,1.76,0,0,1,0-2.48L-20,40a1.76,1.76,0,0,1,2.48,0L-15,42.51A1.76,1.76,0,0,1-15,45Z"/><path class="cls-5" d="M-8.79,38.74l-2.47,2.47a1.76,1.76,0,0,1-2.48,0l-2.47-2.47a1.76,1.76,0,0,1,0-2.48l2.47-2.47a1.76,1.76,0,0,1,2.48,0l2.47,2.47A1.76,1.76,0,0,1-8.79,38.74Z"/><path class="cls-5" d="M-2.54,32.49-5,35a1.76,1.76,0,0,1-2.48,0L-10,32.49A1.76,1.76,0,0,1-10,30l2.47-2.47a1.76,1.76,0,0,1,2.48,0L-2.54,30A1.76,1.76,0,0,1-2.54,32.49Z"/><path class="cls-5" d="M3.71,26.24,1.24,28.71a1.76,1.76,0,0,1-2.48,0l-2.47-2.47a1.76,1.76,0,0,1,0-2.48l2.47-2.47a1.76,1.76,0,0,1,2.48,0l2.47,2.47A1.76,1.76,0,0,1,3.71,26.24Z"/><path class="cls-5" d="M10,20,7.49,22.46a1.76,1.76,0,0,1-2.48,0L2.54,20a1.76,1.76,0,0,1,0-2.48L5,15a1.76,1.76,0,0,1,2.48,0L10,17.51A1.76,1.76,0,0,1,10,20Z"/><path class="cls-5" d="M16.21,13.74l-2.47,2.47a1.76,1.76,0,0,1-2.48,0L8.79,13.74a1.76,1.76,0,0,1,0-2.48l2.47-2.47a1.76,1.76,0,0,1,2.48,0l2.47,2.47A1.76,1.76,0,0,1,16.21,13.74Z"/><path class="cls-5" d="M22.46,7.49,20,10a1.76,1.76,0,0,1-2.48,0L15,7.49A1.76,1.76,0,0,1,15,5l2.47-2.47a1.76,1.76,0,0,1,2.48,0L22.46,5A1.76,1.76,0,0,1,22.46,7.49Z"/><path class="cls-5" d="M28.71,1.24,26.24,3.71a1.76,1.76,0,0,1-2.48,0L21.29,1.24a1.76,1.76,0,0,1,0-2.48l2.47-2.47a1.76,1.76,0,0,1,2.48,0l2.47,2.47A1.76,1.76,0,0,1,28.71,1.24Z"/><path class="cls-5" d="M35-5,32.49-2.54a1.76,1.76,0,0,1-2.48,0L27.54-5a1.76,1.76,0,0,1,0-2.48L30-10a1.76,1.76,0,0,1,2.48,0L35-7.49A1.76,1.76,0,0,1,35-5Z"/><path class="cls-5" d="M41.21-11.26,38.74-8.79a1.76,1.76,0,0,1-2.48,0l-2.47-2.47a1.76,1.76,0,0,1,0-2.48l2.47-2.47a1.76,1.76,0,0,1,2.48,0l2.47,2.47A1.76,1.76,0,0,1,41.21-11.26Z"/><path class="cls-5" d="M47.46-17.51,45-15a1.76,1.76,0,0,1-2.48,0L40-17.51A1.76,1.76,0,0,1,40-20l2.47-2.47a1.76,1.76,0,0,1,2.48,0L47.46-20A1.76,1.76,0,0,1,47.46-17.51Z"/><path class="cls-5" d="M53.71-23.76l-2.47,2.47a1.76,1.76,0,0,1-2.48,0l-2.47-2.47a1.76,1.76,0,0,1,0-2.48l2.47-2.47a1.76,1.76,0,0,1,2.48,0l2.47,2.47A1.76,1.76,0,0,1,53.71-23.76Z"/><path class="cls-5" d="M60-30l-2.47,2.47a1.76,1.76,0,0,1-2.48,0L52.54-30a1.76,1.76,0,0,1,0-2.48L55-35a1.76,1.76,0,0,1,2.48,0L60-32.49A1.76,1.76,0,0,1,60-30Z"/><path class="cls-5" d="M66.21-36.26l-2.47,2.47a1.76,1.76,0,0,1-2.48,0l-2.47-2.47a1.76,1.76,0,0,1,0-2.48l2.47-2.47a1.76,1.76,0,0,1,2.48,0l2.47,2.47A1.76,1.76,0,0,1,66.21-36.26Z"/><path class="cls-5" d="M-21.29,76.24l-2.47,2.47a1.76,1.76,0,0,1-2.48,0l-2.47-2.47a1.76,1.76,0,0,1,0-2.48l2.47-2.47a1.76,1.76,0,0,1,2.48,0l2.47,2.47A1.76,1.76,0,0,1-21.29,76.24Z"/><path class="cls-5" d="M-15,70l-2.47,2.47a1.76,1.76,0,0,1-2.48,0L-22.46,70a1.76,1.76,0,0,1,0-2.48L-20,65a1.76,1.76,0,0,1,2.48,0L-15,67.51A1.76,1.76,0,0,1-15,70Z"/><path class="cls-5" d="M-8.79,63.74l-2.47,2.47a1.76,1.76,0,0,1-2.48,0l-2.47-2.47a1.76,1.76,0,0,1,0-2.48l2.47-2.47a1.76,1.76,0,0,1,2.48,0l2.47,2.47A1.76,1.76,0,0,1-8.79,63.74Z"/><path class="cls-5" d="M-2.54,57.49-5,60a1.76,1.76,0,0,1-2.48,0L-10,57.49A1.76,1.76,0,0,1-10,55l2.47-2.47a1.76,1.76,0,0,1,2.48,0L-2.54,55A1.76,1.76,0,0,1-2.54,57.49Z"/><path class="cls-5" d="M3.71,51.24,1.24,53.71a1.76,1.76,0,0,1-2.48,0l-2.47-2.47a1.76,1.76,0,0,1,0-2.48l2.47-2.47a1.76,1.76,0,0,1,2.48,0l2.47,2.47A1.76,1.76,0,0,1,3.71,51.24Z"/><path class="cls-5" d="M10,45,7.49,47.46a1.76,1.76,0,0,1-2.48,0L2.54,45a1.76,1.76,0,0,1,0-2.48L5,40a1.76,1.76,0,0,1,2.48,0L10,42.51A1.76,1.76,0,0,1,10,45Z"/><path class="cls-5" d="M16.21,38.74l-2.47,2.47a1.76,1.76,0,0,1-2.48,0L8.79,38.74a1.76,1.76,0,0,1,0-2.48l2.47-2.47a1.76,1.76,0,0,1,2.48,0l2.47,2.47A1.76,1.76,0,0,1,16.21,38.74Z"/><path class="cls-5" d="M22.46,32.49,20,35a1.76,1.76,0,0,1-2.48,0L15,32.49A1.76,1.76,0,0,1,15,30l2.47-2.47a1.76,1.76,0,0,1,2.48,0L22.46,30A1.76,1.76,0,0,1,22.46,32.49Z"/><path class="cls-5" d="M28.71,26.24l-2.47,2.47a1.76,1.76,0,0,1-2.48,0l-2.47-2.47a1.76,1.76,0,0,1,0-2.48l2.47-2.47a1.76,1.76,0,0,1,2.48,0l2.47,2.47A1.76,1.76,0,0,1,28.71,26.24Z"/><path class="cls-5" d="M35,20l-2.47,2.47a1.76,1.76,0,0,1-2.48,0L27.54,20a1.76,1.76,0,0,1,0-2.48L30,15a1.76,1.76,0,0,1,2.48,0L35,17.51A1.76,1.76,0,0,1,35,20Z"/><path class="cls-5" d="M41.21,13.74l-2.47,2.47a1.76,1.76,0,0,1-2.48,0l-2.47-2.47a1.76,1.76,0,0,1,0-2.48l2.47-2.47a1.76,1.76,0,0,1,2.48,0l2.47,2.47A1.76,1.76,0,0,1,41.21,13.74Z"/><path class="cls-5" d="M47.46,7.49,45,10a1.76,1.76,0,0,1-2.48,0L40,7.49A1.76,1.76,0,0,1,40,5l2.47-2.47a1.76,1.76,0,0,1,2.48,0L47.46,5A1.76,1.76,0,0,1,47.46,7.49Z"/><path class="cls-5" d="M53.71,1.24,51.24,3.71a1.76,1.76,0,0,1-2.48,0L46.29,1.24a1.76,1.76,0,0,1,0-2.48l2.47-2.47a1.76,1.76,0,0,1,2.48,0l2.47,2.47A1.76,1.76,0,0,1,53.71,1.24Z"/><path class="cls-5" d="M60-5,57.49-2.54a1.76,1.76,0,0,1-2.48,0L52.54-5a1.76,1.76,0,0,1,0-2.48L55-10a1.76,1.76,0,0,1,2.48,0L60-7.49A1.76,1.76,0,0,1,60-5Z"/><path class="cls-5" d="M66.21-11.26,63.74-8.79a1.76,1.76,0,0,1-2.48,0l-2.47-2.47a1.76,1.76,0,0,1,0-2.48l2.47-2.47a1.76,1.76,0,0,1,2.48,0l2.47,2.47A1.76,1.76,0,0,1,66.21-11.26Z"/><path class="cls-5" d="M72.46-17.51,70-15a1.76,1.76,0,0,1-2.48,0L65-17.51A1.76,1.76,0,0,1,65-20l2.47-2.47a1.76,1.76,0,0,1,2.48,0L72.46-20A1.76,1.76,0,0,1,72.46-17.51Z"/><path class="cls-5" d="M78.71-23.76l-2.47,2.47a1.76,1.76,0,0,1-2.48,0l-2.47-2.47a1.76,1.76,0,0,1,0-2.48l2.47-2.47a1.76,1.76,0,0,1,2.48,0l2.47,2.47A1.76,1.76,0,0,1,78.71-23.76Z"/><path class="cls-5" d="M41.21,138.74l-2.47,2.47a1.76,1.76,0,0,1-2.48,0l-2.47-2.47a1.76,1.76,0,0,1,0-2.48l2.47-2.47a1.76,1.76,0,0,1,2.48,0l2.47,2.47A1.76,1.76,0,0,1,41.21,138.74Z"/><path class="cls-5" d="M47.46,132.49,45,135a1.76,1.76,0,0,1-2.48,0L40,132.49A1.76,1.76,0,0,1,40,130l2.47-2.47a1.76,1.76,0,0,1,2.48,0L47.46,130A1.76,1.76,0,0,1,47.46,132.49Z"/><path class="cls-5" d="M53.71,126.24l-2.47,2.47a1.76,1.76,0,0,1-2.48,0l-2.47-2.47a1.76,1.76,0,0,1,0-2.48l2.47-2.47a1.76,1.76,0,0,1,2.48,0l2.47,2.47A1.76,1.76,0,0,1,53.71,126.24Z"/><path class="cls-5" d="M60,120l-2.47,2.47a1.76,1.76,0,0,1-2.48,0L52.54,120a1.76,1.76,0,0,1,0-2.48L55,115a1.76,1.76,0,0,1,2.48,0L60,117.51A1.76,1.76,0,0,1,60,120Z"/><path class="cls-5" d="M66.21,113.74l-2.47,2.47a1.76,1.76,0,0,1-2.48,0l-2.47-2.47a1.76,1.76,0,0,1,0-2.48l2.47-2.47a1.76,1.76,0,0,1,2.48,0l2.47,2.47A1.76,1.76,0,0,1,66.21,113.74Z"/><path class="cls-5" d="M72.46,107.49,70,110a1.76,1.76,0,0,1-2.48,0L65,107.49A1.76,1.76,0,0,1,65,105l2.47-2.47a1.76,1.76,0,0,1,2.48,0L72.46,105A1.76,1.76,0,0,1,72.46,107.49Z"/><path class="cls-5" d="M78.71,101.24l-2.47,2.47a1.76,1.76,0,0,1-2.48,0l-2.47-2.47a1.76,1.76,0,0,1,0-2.48l2.47-2.47a1.76,1.76,0,0,1,2.48,0l2.47,2.47A1.76,1.76,0,0,1,78.71,101.24Z"/><path class="cls-5" d="M85,95l-2.47,2.47a1.76,1.76,0,0,1-2.48,0L77.54,95a1.76,1.76,0,0,1,0-2.48L80,90a1.76,1.76,0,0,1,2.48,0L85,92.51A1.76,1.76,0,0,1,85,95Z"/><path class="cls-5" d="M91.21,88.74l-2.47,2.47a1.76,1.76,0,0,1-2.48,0l-2.47-2.47a1.76,1.76,0,0,1,0-2.48l2.47-2.47a1.76,1.76,0,0,1,2.48,0l2.47,2.47A1.76,1.76,0,0,1,91.21,88.74Z"/><path class="cls-5" d="M97.46,82.49,95,85a1.76,1.76,0,0,1-2.48,0L90,82.49A1.76,1.76,0,0,1,90,80l2.47-2.47a1.76,1.76,0,0,1,2.48,0L97.46,80A1.76,1.76,0,0,1,97.46,82.49Z"/><path class="cls-5" d="M103.71,76.24l-2.47,2.47a1.76,1.76,0,0,1-2.48,0l-2.47-2.47a1.76,1.76,0,0,1,0-2.48l2.47-2.47a1.76,1.76,0,0,1,2.48,0l2.47,2.47A1.76,1.76,0,0,1,103.71,76.24Z"/><path class="cls-5" d="M110,70l-2.47,2.47a1.76,1.76,0,0,1-2.48,0L102.54,70a1.76,1.76,0,0,1,0-2.48L105,65a1.76,1.76,0,0,1,2.48,0L110,67.51A1.76,1.76,0,0,1,110,70Z"/><path class="cls-5" d="M116.21,63.74l-2.47,2.47a1.76,1.76,0,0,1-2.48,0l-2.47-2.47a1.76,1.76,0,0,1,0-2.48l2.47-2.47a1.76,1.76,0,0,1,2.48,0l2.47,2.47A1.76,1.76,0,0,1,116.21,63.74Z"/><path class="cls-5" d="M122.46,57.49,120,60a1.76,1.76,0,0,1-2.48,0L115,57.49A1.76,1.76,0,0,1,115,55l2.47-2.47a1.76,1.76,0,0,1,2.48,0L122.46,55A1.76,1.76,0,0,1,122.46,57.49Z"/><path class="cls-5" d="M128.71,51.24l-2.47,2.47a1.76,1.76,0,0,1-2.48,0l-2.47-2.47a1.76,1.76,0,0,1,0-2.48l2.47-2.47a1.76,1.76,0,0,1,2.48,0l2.47,2.47A1.76,1.76,0,0,1,128.71,51.24Z"/><path class="cls-5" d="M135,45l-2.47,2.47a1.76,1.76,0,0,1-2.48,0L127.54,45a1.76,1.76,0,0,1,0-2.48L130,40a1.76,1.76,0,0,1,2.48,0L135,42.51A1.76,1.76,0,0,1,135,45Z"/><path class="cls-5" d="M141.21,38.74l-2.47,2.47a1.76,1.76,0,0,1-2.48,0l-2.47-2.47a1.76,1.76,0,0,1,0-2.48l2.47-2.47a1.76,1.76,0,0,1,2.48,0l2.47,2.47A1.76,1.76,0,0,1,141.21,38.74Z"/><path class="cls-5" d="M16.21,113.74l-2.47,2.47a1.76,1.76,0,0,1-2.48,0l-2.47-2.47a1.76,1.76,0,0,1,0-2.48l2.47-2.47a1.76,1.76,0,0,1,2.48,0l2.47,2.47A1.76,1.76,0,0,1,16.21,113.74Z"/><path class="cls-5" d="M22.46,107.49,20,110a1.76,1.76,0,0,1-2.48,0L15,107.49A1.76,1.76,0,0,1,15,105l2.47-2.47a1.76,1.76,0,0,1,2.48,0L22.46,105A1.76,1.76,0,0,1,22.46,107.49Z"/><path class="cls-5" d="M28.71,101.24l-2.47,2.47a1.76,1.76,0,0,1-2.48,0l-2.47-2.47a1.76,1.76,0,0,1,0-2.48l2.47-2.47a1.76,1.76,0,0,1,2.48,0l2.47,2.47A1.76,1.76,0,0,1,28.71,101.24Z"/><path class="cls-5" d="M35,95l-2.47,2.47a1.76,1.76,0,0,1-2.48,0L27.54,95a1.76,1.76,0,0,1,0-2.48L30,90a1.76,1.76,0,0,1,2.48,0L35,92.51A1.76,1.76,0,0,1,35,95Z"/><path class="cls-5" d="M41.21,88.74l-2.47,2.47a1.76,1.76,0,0,1-2.48,0l-2.47-2.47a1.76,1.76,0,0,1,0-2.48l2.47-2.47a1.76,1.76,0,0,1,2.48,0l2.47,2.47A1.76,1.76,0,0,1,41.21,88.74Z"/><path class="cls-5" d="M47.46,82.49,45,85a1.76,1.76,0,0,1-2.48,0L40,82.49A1.76,1.76,0,0,1,40,80l2.47-2.47a1.76,1.76,0,0,1,2.48,0L47.46,80A1.76,1.76,0,0,1,47.46,82.49Z"/><path class="cls-5" d="M53.71,76.24l-2.47,2.47a1.76,1.76,0,0,1-2.48,0l-2.47-2.47a1.76,1.76,0,0,1,0-2.48l2.47-2.47a1.76,1.76,0,0,1,2.48,0l2.47,2.47A1.76,1.76,0,0,1,53.71,76.24Z"/><path class="cls-5" d="M60,70l-2.47,2.47a1.76,1.76,0,0,1-2.48,0L52.54,70a1.76,1.76,0,0,1,0-2.48L55,65a1.76,1.76,0,0,1,2.48,0L60,67.51A1.76,1.76,0,0,1,60,70Z"/><path class="cls-5" d="M66.21,63.74l-2.47,2.47a1.76,1.76,0,0,1-2.48,0l-2.47-2.47a1.76,1.76,0,0,1,0-2.48l2.47-2.47a1.76,1.76,0,0,1,2.48,0l2.47,2.47A1.76,1.76,0,0,1,66.21,63.74Z"/><path class="cls-5" d="M72.46,57.49,70,60a1.76,1.76,0,0,1-2.48,0L65,57.49A1.76,1.76,0,0,1,65,55l2.47-2.47a1.76,1.76,0,0,1,2.48,0L72.46,55A1.76,1.76,0,0,1,72.46,57.49Z"/><path class="cls-5" d="M78.71,51.24l-2.47,2.47a1.76,1.76,0,0,1-2.48,0l-2.47-2.47a1.76,1.76,0,0,1,0-2.48l2.47-2.47a1.76,1.76,0,0,1,2.48,0l2.47,2.47A1.76,1.76,0,0,1,78.71,51.24Z"/><path class="cls-5" d="M85,45l-2.47,2.47a1.76,1.76,0,0,1-2.48,0L77.54,45a1.76,1.76,0,0,1,0-2.48L80,40a1.76,1.76,0,0,1,2.48,0L85,42.51A1.76,1.76,0,0,1,85,45Z"/><path class="cls-5" d="M91.21,38.74l-2.47,2.47a1.76,1.76,0,0,1-2.48,0l-2.47-2.47a1.76,1.76,0,0,1,0-2.48l2.47-2.47a1.76,1.76,0,0,1,2.48,0l2.47,2.47A1.76,1.76,0,0,1,91.21,38.74Z"/><path class="cls-5" d="M97.46,32.49,95,35a1.76,1.76,0,0,1-2.48,0L90,32.49A1.76,1.76,0,0,1,90,30l2.47-2.47a1.76,1.76,0,0,1,2.48,0L97.46,30A1.76,1.76,0,0,1,97.46,32.49Z"/><path class="cls-5" d="M103.71,26.24l-2.47,2.47a1.76,1.76,0,0,1-2.48,0l-2.47-2.47a1.76,1.76,0,0,1,0-2.48l2.47-2.47a1.76,1.76,0,0,1,2.48,0l2.47,2.47A1.76,1.76,0,0,1,103.71,26.24Z"/><path class="cls-5" d="M110,20l-2.47,2.47a1.76,1.76,0,0,1-2.48,0L102.54,20a1.76,1.76,0,0,1,0-2.48L105,15a1.76,1.76,0,0,1,2.48,0L110,17.51A1.76,1.76,0,0,1,110,20Z"/><path class="cls-5" d="M116.21,13.74l-2.47,2.47a1.76,1.76,0,0,1-2.48,0l-2.47-2.47a1.76,1.76,0,0,1,0-2.48l2.47-2.47a1.76,1.76,0,0,1,2.48,0l2.47,2.47A1.76,1.76,0,0,1,116.21,13.74Z"/><path class="cls-5" d="M-8.79,88.74l-2.47,2.47a1.76,1.76,0,0,1-2.48,0l-2.47-2.47a1.76,1.76,0,0,1,0-2.48l2.47-2.47a1.76,1.76,0,0,1,2.48,0l2.47,2.47A1.76,1.76,0,0,1-8.79,88.74Z"/><path class="cls-5" d="M-2.54,82.49-5,85a1.76,1.76,0,0,1-2.48,0L-10,82.49A1.76,1.76,0,0,1-10,80l2.47-2.47a1.76,1.76,0,0,1,2.48,0L-2.54,80A1.76,1.76,0,0,1-2.54,82.49Z"/><path class="cls-5" d="M3.71,76.24,1.24,78.71a1.76,1.76,0,0,1-2.48,0l-2.47-2.47a1.76,1.76,0,0,1,0-2.48l2.47-2.47a1.76,1.76,0,0,1,2.48,0l2.47,2.47A1.76,1.76,0,0,1,3.71,76.24Z"/><path class="cls-5" d="M10,70,7.49,72.46a1.76,1.76,0,0,1-2.48,0L2.54,70a1.76,1.76,0,0,1,0-2.48L5,65a1.76,1.76,0,0,1,2.48,0L10,67.51A1.76,1.76,0,0,1,10,70Z"/><path class="cls-5" d="M16.21,63.74l-2.47,2.47a1.76,1.76,0,0,1-2.48,0L8.79,63.74a1.76,1.76,0,0,1,0-2.48l2.47-2.47a1.76,1.76,0,0,1,2.48,0l2.47,2.47A1.76,1.76,0,0,1,16.21,63.74Z"/><path class="cls-5" d="M22.46,57.49,20,60a1.76,1.76,0,0,1-2.48,0L15,57.49A1.76,1.76,0,0,1,15,55l2.47-2.47a1.76,1.76,0,0,1,2.48,0L22.46,55A1.76,1.76,0,0,1,22.46,57.49Z"/><path class="cls-5" d="M28.71,51.24l-2.47,2.47a1.76,1.76,0,0,1-2.48,0l-2.47-2.47a1.76,1.76,0,0,1,0-2.48l2.47-2.47a1.76,1.76,0,0,1,2.48,0l2.47,2.47A1.76,1.76,0,0,1,28.71,51.24Z"/><path class="cls-5" d="M35,45l-2.47,2.47a1.76,1.76,0,0,1-2.48,0L27.54,45a1.76,1.76,0,0,1,0-2.48L30,40a1.76,1.76,0,0,1,2.48,0L35,42.51A1.76,1.76,0,0,1,35,45Z"/><path class="cls-5" d="M41.21,38.74l-2.47,2.47a1.76,1.76,0,0,1-2.48,0l-2.47-2.47a1.76,1.76,0,0,1,0-2.48l2.47-2.47a1.76,1.76,0,0,1,2.48,0l2.47,2.47A1.76,1.76,0,0,1,41.21,38.74Z"/><path class="cls-5" d="M47.46,32.49,45,35a1.76,1.76,0,0,1-2.48,0L40,32.49A1.76,1.76,0,0,1,40,30l2.47-2.47a1.76,1.76,0,0,1,2.48,0L47.46,30A1.76,1.76,0,0,1,47.46,32.49Z"/><path class="cls-5" d="M53.71,26.24l-2.47,2.47a1.76,1.76,0,0,1-2.48,0l-2.47-2.47a1.76,1.76,0,0,1,0-2.48l2.47-2.47a1.76,1.76,0,0,1,2.48,0l2.47,2.47A1.76,1.76,0,0,1,53.71,26.24Z"/><path class="cls-5" d="M60,20l-2.47,2.47a1.76,1.76,0,0,1-2.48,0L52.54,20a1.76,1.76,0,0,1,0-2.48L55,15a1.76,1.76,0,0,1,2.48,0L60,17.51A1.76,1.76,0,0,1,60,20Z"/><path class="cls-5" d="M66.21,13.74l-2.47,2.47a1.76,1.76,0,0,1-2.48,0l-2.47-2.47a1.76,1.76,0,0,1,0-2.48l2.47-2.47a1.76,1.76,0,0,1,2.48,0l2.47,2.47A1.76,1.76,0,0,1,66.21,13.74Z"/><path class="cls-5" d="M72.46,7.49,70,10a1.76,1.76,0,0,1-2.48,0L65,7.49A1.76,1.76,0,0,1,65,5l2.47-2.47a1.76,1.76,0,0,1,2.48,0L72.46,5A1.76,1.76,0,0,1,72.46,7.49Z"/><path class="cls-5" d="M78.71,1.24,76.24,3.71a1.76,1.76,0,0,1-2.48,0L71.29,1.24a1.76,1.76,0,0,1,0-2.48l2.47-2.47a1.76,1.76,0,0,1,2.48,0l2.47,2.47A1.76,1.76,0,0,1,78.71,1.24Z"/><path class="cls-5" d="M85-5,82.49-2.54a1.76,1.76,0,0,1-2.48,0L77.54-5a1.76,1.76,0,0,1,0-2.48L80-10a1.76,1.76,0,0,1,2.48,0L85-7.49A1.76,1.76,0,0,1,85-5Z"/><path class="cls-5" d="M91.21-11.26,88.74-8.79a1.76,1.76,0,0,1-2.48,0l-2.47-2.47a1.76,1.76,0,0,1,0-2.48l2.47-2.47a1.76,1.76,0,0,1,2.48,0l2.47,2.47A1.76,1.76,0,0,1,91.21-11.26Z"/><path class="cls-5" d="M3.71,101.24l-2.47,2.47a1.76,1.76,0,0,1-2.48,0l-2.47-2.47a1.76,1.76,0,0,1,0-2.48l2.47-2.47a1.76,1.76,0,0,1,2.48,0l2.47,2.47A1.76,1.76,0,0,1,3.71,101.24Z"/><path class="cls-5" d="M10,95,7.49,97.46a1.76,1.76,0,0,1-2.48,0L2.54,95a1.76,1.76,0,0,1,0-2.48L5,90a1.76,1.76,0,0,1,2.48,0L10,92.51A1.76,1.76,0,0,1,10,95Z"/><path class="cls-5" d="M16.21,88.74l-2.47,2.47a1.76,1.76,0,0,1-2.48,0L8.79,88.74a1.76,1.76,0,0,1,0-2.48l2.47-2.47a1.76,1.76,0,0,1,2.48,0l2.47,2.47A1.76,1.76,0,0,1,16.21,88.74Z"/><path class="cls-5" d="M22.46,82.49,20,85a1.76,1.76,0,0,1-2.48,0L15,82.49A1.76,1.76,0,0,1,15,80l2.47-2.47a1.76,1.76,0,0,1,2.48,0L22.46,80A1.76,1.76,0,0,1,22.46,82.49Z"/><path class="cls-5" d="M28.71,76.24l-2.47,2.47a1.76,1.76,0,0,1-2.48,0l-2.47-2.47a1.76,1.76,0,0,1,0-2.48l2.47-2.47a1.76,1.76,0,0,1,2.48,0l2.47,2.47A1.76,1.76,0,0,1,28.71,76.24Z"/><path class="cls-5" d="M35,70l-2.47,2.47a1.76,1.76,0,0,1-2.48,0L27.54,70a1.76,1.76,0,0,1,0-2.48L30,65a1.76,1.76,0,0,1,2.48,0L35,67.51A1.76,1.76,0,0,1,35,70Z"/><path class="cls-5" d="M41.21,63.74l-2.47,2.47a1.76,1.76,0,0,1-2.48,0l-2.47-2.47a1.76,1.76,0,0,1,0-2.48l2.47-2.47a1.76,1.76,0,0,1,2.48,0l2.47,2.47A1.76,1.76,0,0,1,41.21,63.74Z"/><path class="cls-5" d="M47.46,57.49,45,60a1.76,1.76,0,0,1-2.48,0L40,57.49A1.76,1.76,0,0,1,40,55l2.47-2.47a1.76,1.76,0,0,1,2.48,0L47.46,55A1.76,1.76,0,0,1,47.46,57.49Z"/><path class="cls-5" d="M53.71,51.24l-2.47,2.47a1.76,1.76,0,0,1-2.48,0l-2.47-2.47a1.76,1.76,0,0,1,0-2.48l2.47-2.47a1.76,1.76,0,0,1,2.48,0l2.47,2.47A1.76,1.76,0,0,1,53.71,51.24Z"/><path class="cls-5" d="M60,45l-2.47,2.47a1.76,1.76,0,0,1-2.48,0L52.54,45a1.76,1.76,0,0,1,0-2.48L55,40a1.76,1.76,0,0,1,2.48,0L60,42.51A1.76,1.76,0,0,1,60,45Z"/><path class="cls-5" d="M66.21,38.74l-2.47,2.47a1.76,1.76,0,0,1-2.48,0l-2.47-2.47a1.76,1.76,0,0,1,0-2.48l2.47-2.47a1.76,1.76,0,0,1,2.48,0l2.47,2.47A1.76,1.76,0,0,1,66.21,38.74Z"/><path class="cls-5" d="M72.46,32.49,70,35a1.76,1.76,0,0,1-2.48,0L65,32.49A1.76,1.76,0,0,1,65,30l2.47-2.47a1.76,1.76,0,0,1,2.48,0L72.46,30A1.76,1.76,0,0,1,72.46,32.49Z"/><path class="cls-5" d="M78.71,26.24l-2.47,2.47a1.76,1.76,0,0,1-2.48,0l-2.47-2.47a1.76,1.76,0,0,1,0-2.48l2.47-2.47a1.76,1.76,0,0,1,2.48,0l2.47,2.47A1.76,1.76,0,0,1,78.71,26.24Z"/><path class="cls-5" d="M85,20l-2.47,2.47a1.76,1.76,0,0,1-2.48,0L77.54,20a1.76,1.76,0,0,1,0-2.48L80,15a1.76,1.76,0,0,1,2.48,0L85,17.51A1.76,1.76,0,0,1,85,20Z"/><path class="cls-5" d="M91.21,13.74l-2.47,2.47a1.76,1.76,0,0,1-2.48,0l-2.47-2.47a1.76,1.76,0,0,1,0-2.48l2.47-2.47a1.76,1.76,0,0,1,2.48,0l2.47,2.47A1.76,1.76,0,0,1,91.21,13.74Z"/><path class="cls-5" d="M97.46,7.49,95,10a1.76,1.76,0,0,1-2.48,0L90,7.49A1.76,1.76,0,0,1,90,5l2.47-2.47a1.76,1.76,0,0,1,2.48,0L97.46,5A1.76,1.76,0,0,1,97.46,7.49Z"/><path class="cls-5" d="M103.71,1.24l-2.47,2.47a1.76,1.76,0,0,1-2.48,0L96.29,1.24a1.76,1.76,0,0,1,0-2.48l2.47-2.47a1.76,1.76,0,0,1,2.48,0l2.47,2.47A1.76,1.76,0,0,1,103.71,1.24Z"/><path class="cls-5" d="M-46.29,51.24l-2.47,2.47a1.76,1.76,0,0,1-2.48,0l-2.47-2.47a1.76,1.76,0,0,1,0-2.48l2.47-2.47a1.76,1.76,0,0,1,2.48,0l2.47,2.47A1.76,1.76,0,0,1-46.29,51.24Z"/><path class="cls-5" d="M-40,45l-2.47,2.47a1.76,1.76,0,0,1-2.48,0L-47.46,45a1.76,1.76,0,0,1,0-2.48L-45,40a1.76,1.76,0,0,1,2.48,0L-40,42.51A1.76,1.76,0,0,1-40,45Z"/><path class="cls-5" d="M-33.79,38.74l-2.47,2.47a1.76,1.76,0,0,1-2.48,0l-2.47-2.47a1.76,1.76,0,0,1,0-2.48l2.47-2.47a1.76,1.76,0,0,1,2.48,0l2.47,2.47A1.76,1.76,0,0,1-33.79,38.74Z"/><path class="cls-5" d="M-27.54,32.49-30,35a1.76,1.76,0,0,1-2.48,0L-35,32.49A1.76,1.76,0,0,1-35,30l2.47-2.47a1.76,1.76,0,0,1,2.48,0L-27.54,30A1.76,1.76,0,0,1-27.54,32.49Z"/><path class="cls-5" d="M-21.29,26.24l-2.47,2.47a1.76,1.76,0,0,1-2.48,0l-2.47-2.47a1.76,1.76,0,0,1,0-2.48l2.47-2.47a1.76,1.76,0,0,1,2.48,0l2.47,2.47A1.76,1.76,0,0,1-21.29,26.24Z"/><path class="cls-5" d="M-15,20l-2.47,2.47a1.76,1.76,0,0,1-2.48,0L-22.46,20a1.76,1.76,0,0,1,0-2.48L-20,15a1.76,1.76,0,0,1,2.48,0L-15,17.51A1.76,1.76,0,0,1-15,20Z"/><path class="cls-5" d="M-8.79,13.74l-2.47,2.47a1.76,1.76,0,0,1-2.48,0l-2.47-2.47a1.76,1.76,0,0,1,0-2.48l2.47-2.47a1.76,1.76,0,0,1,2.48,0l2.47,2.47A1.76,1.76,0,0,1-8.79,13.74Z"/><path class="cls-5" d="M-2.54,7.49-5,10a1.76,1.76,0,0,1-2.48,0L-10,7.49A1.76,1.76,0,0,1-10,5l2.47-2.47A1.76,1.76,0,0,1-5,2.54L-2.54,5A1.76,1.76,0,0,1-2.54,7.49Z"/><path class="cls-5" d="M3.71,1.24,1.24,3.71a1.76,1.76,0,0,1-2.48,0L-3.71,1.24a1.76,1.76,0,0,1,0-2.48l2.47-2.47a1.76,1.76,0,0,1,2.48,0L3.71-1.24A1.76,1.76,0,0,1,3.71,1.24Z"/><path class="cls-5" d="M10-5,7.49-2.54A1.76,1.76,0,0,1,5-2.54L2.54-5a1.76,1.76,0,0,1,0-2.48L5-10a1.76,1.76,0,0,1,2.48,0L10-7.49A1.76,1.76,0,0,1,10-5Z"/><path class="cls-5" d="M16.21-11.26,13.74-8.79a1.76,1.76,0,0,1-2.48,0L8.79-11.26a1.76,1.76,0,0,1,0-2.48l2.47-2.47a1.76,1.76,0,0,1,2.48,0l2.47,2.47A1.76,1.76,0,0,1,16.21-11.26Z"/><path class="cls-5" d="M22.46-17.51,20-15a1.76,1.76,0,0,1-2.48,0L15-17.51A1.76,1.76,0,0,1,15-20l2.47-2.47a1.76,1.76,0,0,1,2.48,0L22.46-20A1.76,1.76,0,0,1,22.46-17.51Z"/><path class="cls-5" d="M28.71-23.76l-2.47,2.47a1.76,1.76,0,0,1-2.48,0l-2.47-2.47a1.76,1.76,0,0,1,0-2.48l2.47-2.47a1.76,1.76,0,0,1,2.48,0l2.47,2.47A1.76,1.76,0,0,1,28.71-23.76Z"/><path class="cls-5" d="M35-30l-2.47,2.47a1.76,1.76,0,0,1-2.48,0L27.54-30a1.76,1.76,0,0,1,0-2.48L30-35a1.76,1.76,0,0,1,2.48,0L35-32.49A1.76,1.76,0,0,1,35-30Z"/><path class="cls-5" d="M41.21-36.26l-2.47,2.47a1.76,1.76,0,0,1-2.48,0l-2.47-2.47a1.76,1.76,0,0,1,0-2.48l2.47-2.47a1.76,1.76,0,0,1,2.48,0l2.47,2.47A1.76,1.76,0,0,1,41.21-36.26Z"/><path class="cls-5" d="M47.46-42.51,45-40a1.76,1.76,0,0,1-2.48,0L40-42.51A1.76,1.76,0,0,1,40-45l2.47-2.47a1.76,1.76,0,0,1,2.48,0L47.46-45A1.76,1.76,0,0,1,47.46-42.51Z"/><path class="cls-5" d="M53.71-48.76l-2.47,2.47a1.76,1.76,0,0,1-2.48,0l-2.47-2.47a1.76,1.76,0,0,1,0-2.48l2.47-2.47a1.76,1.76,0,0,1,2.48,0l2.47,2.47A1.76,1.76,0,0,1,53.71-48.76Z"/><path class="cls-5" d="M53.71,151.24l-2.47,2.47a1.76,1.76,0,0,1-2.48,0l-2.47-2.47a1.76,1.76,0,0,1,0-2.48l2.47-2.47a1.76,1.76,0,0,1,2.48,0l2.47,2.47A1.76,1.76,0,0,1,53.71,151.24Z"/><path class="cls-5" d="M60,145l-2.47,2.47a1.76,1.76,0,0,1-2.48,0L52.54,145a1.76,1.76,0,0,1,0-2.48L55,140a1.76,1.76,0,0,1,2.48,0L60,142.51A1.76,1.76,0,0,1,60,145Z"/><path class="cls-5" d="M66.21,138.74l-2.47,2.47a1.76,1.76,0,0,1-2.48,0l-2.47-2.47a1.76,1.76,0,0,1,0-2.48l2.47-2.47a1.76,1.76,0,0,1,2.48,0l2.47,2.47A1.76,1.76,0,0,1,66.21,138.74Z"/><path class="cls-5" d="M72.46,132.49,70,135a1.76,1.76,0,0,1-2.48,0L65,132.49A1.76,1.76,0,0,1,65,130l2.47-2.47a1.76,1.76,0,0,1,2.48,0L72.46,130A1.76,1.76,0,0,1,72.46,132.49Z"/><path class="cls-5" d="M78.71,126.24l-2.47,2.47a1.76,1.76,0,0,1-2.48,0l-2.47-2.47a1.76,1.76,0,0,1,0-2.48l2.47-2.47a1.76,1.76,0,0,1,2.48,0l2.47,2.47A1.76,1.76,0,0,1,78.71,126.24Z"/><path class="cls-5" d="M85,120l-2.47,2.47a1.76,1.76,0,0,1-2.48,0L77.54,120a1.76,1.76,0,0,1,0-2.48L80,115a1.76,1.76,0,0,1,2.48,0L85,117.51A1.76,1.76,0,0,1,85,120Z"/><path class="cls-5" d="M91.21,113.74l-2.47,2.47a1.76,1.76,0,0,1-2.48,0l-2.47-2.47a1.76,1.76,0,0,1,0-2.48l2.47-2.47a1.76,1.76,0,0,1,2.48,0l2.47,2.47A1.76,1.76,0,0,1,91.21,113.74Z"/><path class="cls-5" d="M97.46,107.49,95,110a1.76,1.76,0,0,1-2.48,0L90,107.49A1.76,1.76,0,0,1,90,105l2.47-2.47a1.76,1.76,0,0,1,2.48,0L97.46,105A1.76,1.76,0,0,1,97.46,107.49Z"/><path class="cls-5" d="M103.71,101.24l-2.47,2.47a1.76,1.76,0,0,1-2.48,0l-2.47-2.47a1.76,1.76,0,0,1,0-2.48l2.47-2.47a1.76,1.76,0,0,1,2.48,0l2.47,2.47A1.76,1.76,0,0,1,103.71,101.24Z"/><path class="cls-5" d="M110,95l-2.47,2.47a1.76,1.76,0,0,1-2.48,0L102.54,95a1.76,1.76,0,0,1,0-2.48L105,90a1.76,1.76,0,0,1,2.48,0L110,92.51A1.76,1.76,0,0,1,110,95Z"/><path class="cls-5" d="M116.21,88.74l-2.47,2.47a1.76,1.76,0,0,1-2.48,0l-2.47-2.47a1.76,1.76,0,0,1,0-2.48l2.47-2.47a1.76,1.76,0,0,1,2.48,0l2.47,2.47A1.76,1.76,0,0,1,116.21,88.74Z"/><path class="cls-5" d="M122.46,82.49,120,85a1.76,1.76,0,0,1-2.48,0L115,82.49A1.76,1.76,0,0,1,115,80l2.47-2.47a1.76,1.76,0,0,1,2.48,0L122.46,80A1.76,1.76,0,0,1,122.46,82.49Z"/><path class="cls-5" d="M128.71,76.24l-2.47,2.47a1.76,1.76,0,0,1-2.48,0l-2.47-2.47a1.76,1.76,0,0,1,0-2.48l2.47-2.47a1.76,1.76,0,0,1,2.48,0l2.47,2.47A1.76,1.76,0,0,1,128.71,76.24Z"/><path class="cls-5" d="M135,70l-2.47,2.47a1.76,1.76,0,0,1-2.48,0L127.54,70a1.76,1.76,0,0,1,0-2.48L130,65a1.76,1.76,0,0,1,2.48,0L135,67.51A1.76,1.76,0,0,1,135,70Z"/><path class="cls-5" d="M141.21,63.74l-2.47,2.47a1.76,1.76,0,0,1-2.48,0l-2.47-2.47a1.76,1.76,0,0,1,0-2.48l2.47-2.47a1.76,1.76,0,0,1,2.48,0l2.47,2.47A1.76,1.76,0,0,1,141.21,63.74Z"/><path class="cls-5" d="M147.46,57.49,145,60a1.76,1.76,0,0,1-2.48,0L140,57.49A1.76,1.76,0,0,1,140,55l2.47-2.47a1.76,1.76,0,0,1,2.48,0L147.46,55A1.76,1.76,0,0,1,147.46,57.49Z"/><path class="cls-5" d="M153.71,51.24l-2.47,2.47a1.76,1.76,0,0,1-2.48,0l-2.47-2.47a1.76,1.76,0,0,1,0-2.48l2.47-2.47a1.76,1.76,0,0,1,2.48,0l2.47,2.47A1.76,1.76,0,0,1,153.71,51.24Z"/></g></pattern></defs><title>Asset 3</title><g id="Layer_2" data-name="Layer 2"><g id="Layer_1-2" data-name="Layer 1"><rect class="cls-6" width="100" height="100"/></g></g></svg>