<svg xmlns="http://www.w3.org/2000/svg" xmlns:xlink="http://www.w3.org/1999/xlink" viewBox="0 0 100 100"><defs><style>.cls-1,.cls-4{fill:none;}.cls-2{clip-path:url(#clip-path);}.cls-3{fill:#5e6a85;}.cls-4{stroke:#1a1a1a;stroke-miterlimit:10;stroke-width:1.5px;}.cls-5{fill:url(#_31-1.5_2);}</style><clipPath id="clip-path"><rect id="SVGID" class="cls-1" width="100" height="100"/></clipPath><pattern id="_31-1.5_2" data-name="31-1.5 2" width="100" height="100" patternTransform="translate(-138.07 -72.72)" patternUnits="userSpaceOnUse" viewBox="0 0 100 100"><rect class="cls-1" width="100" height="100"/><g class="cls-2"><rect class="cls-3" x="-26.99" y="-27.2" width="127.35" height="127.35"/><line class="cls-4" x1="46.97" y1="-53.03" x2="153.03" y2="53.03"/><line class="cls-4" x1="43.84" y1="-49.91" x2="149.91" y2="56.16"/><line class="cls-4" x1="40.72" y1="-46.78" x2="146.78" y2="59.28"/><line class="cls-4" x1="37.59" y1="-43.66" x2="143.66" y2="62.41"/><line class="cls-4" x1="34.47" y1="-40.53" x2="140.53" y2="65.53"/><line class="cls-4" x1="31.34" y1="-37.41" x2="137.41" y2="68.66"/><line class="cls-4" x1="28.22" y1="-34.28" x2="134.28" y2="71.78"/><line class="cls-4" x1="25.09" y1="-31.16" x2="131.16" y2="74.91"/><line class="cls-4" x1="21.97" y1="-28.03" x2="128.03" y2="78.03"/><line class="cls-4" x1="18.84" y1="-24.91" x2="124.91" y2="81.16"/><line class="cls-4" x1="15.72" y1="-21.78" x2="121.78" y2="84.28"/><line class="cls-4" x1="12.59" y1="-18.66" x2="118.66" y2="87.41"/><line class="cls-4" x1="9.47" y1="-15.53" x2="115.53" y2="90.53"/><line class="cls-4" x1="6.34" y1="-12.41" x2="112.41" y2="93.66"/><line class="cls-4" x1="3.22" y1="-9.28" x2="109.28" y2="96.78"/><line class="cls-4" x1="0.09" y1="-6.16" x2="106.16" y2="99.91"/><line class="cls-4" x1="-3.03" y1="-3.03" x2="103.03" y2="103.03"/><line class="cls-4" x1="-6.16" y1="0.09" x2="99.91" y2="106.16"/><line class="cls-4" x1="-9.28" y1="3.22" x2="96.78" y2="109.28"/><line class="cls-4" x1="-12.41" y1="6.34" x2="93.66" y2="112.41"/><line class="cls-4" x1="-15.53" y1="9.47" x2="90.53" y2="115.53"/><line class="cls-4" x1="-18.66" y1="12.59" x2="87.41" y2="118.66"/><line class="cls-4" x1="-21.78" y1="15.72" x2="84.28" y2="121.78"/><line class="cls-4" x1="-24.91" y1="18.84" x2="81.16" y2="124.91"/><line class="cls-4" x1="-28.03" y1="21.97" x2="78.03" y2="128.03"/><line class="cls-4" x1="-31.16" y1="25.09" x2="74.91" y2="131.16"/><line class="cls-4" x1="-34.28" y1="28.22" x2="71.78" y2="134.28"/><line class="cls-4" x1="-37.41" y1="31.34" x2="68.66" y2="137.41"/><line class="cls-4" x1="-40.53" y1="34.47" x2="65.53" y2="140.53"/><line class="cls-4" x1="-43.66" y1="37.59" x2="62.41" y2="143.66"/><line class="cls-4" x1="-46.78" y1="40.72" x2="59.28" y2="146.78"/><line class="cls-4" x1="-49.91" y1="43.84" x2="56.16" y2="149.91"/><line class="cls-4" x1="-53.03" y1="46.97" x2="53.03" y2="153.03"/></g></pattern></defs><title>Asset 3</title><g id="Layer_2" data-name="Layer 2"><g id="Layer_1-2" data-name="Layer 1"><rect class="cls-5" width="100" height="100"/></g></g></svg>