<svg xmlns="http://www.w3.org/2000/svg" xmlns:xlink="http://www.w3.org/1999/xlink" viewBox="0 0 206.07 206.07"><defs><style>.cls-1{fill:#b61002;}.cls-2{clip-path:url(#clip-path);}</style><clipPath id="clip-path" transform="translate(53.03 53.03)"><rect class="cls-1" width="100" height="100"/></clipPath></defs><title>Asset 1</title><g id="Layer_2" data-name="Layer 2"><g id="build"><rect class="cls-1" x="53.03" y="53.03" width="100" height="100"/><g class="cls-2"><line class="cls-1" y1="106.07" x2="106.07"/><line class="cls-1" x1="5.56" y1="111.62" x2="111.62" y2="5.56"/><line class="cls-1" x1="11.11" y1="117.18" x2="117.18" y2="11.11"/><line class="cls-1" x1="16.67" y1="122.73" x2="122.73" y2="16.67"/><line class="cls-1" x1="22.22" y1="128.29" x2="128.29" y2="22.22"/><line class="cls-1" x1="27.78" y1="133.84" x2="133.84" y2="27.78"/><line class="cls-1" x1="33.33" y1="139.4" x2="139.4" y2="33.33"/><line class="cls-1" x1="38.89" y1="144.95" x2="144.95" y2="38.89"/><line class="cls-1" x1="44.44" y1="150.51" x2="150.51" y2="44.44"/><line class="cls-1" x1="50" y1="156.07" x2="156.07" y2="50"/><line class="cls-1" x1="55.56" y1="161.62" x2="161.62" y2="55.56"/><line class="cls-1" x1="61.11" y1="167.18" x2="167.18" y2="61.11"/><line class="cls-1" x1="66.67" y1="172.73" x2="172.73" y2="66.67"/><line class="cls-1" x1="72.22" y1="178.29" x2="178.29" y2="72.22"/><line class="cls-1" x1="77.78" y1="183.84" x2="183.84" y2="77.78"/><line class="cls-1" x1="83.33" y1="189.4" x2="189.4" y2="83.33"/><line class="cls-1" x1="88.89" y1="194.95" x2="194.95" y2="88.89"/><line class="cls-1" x1="94.44" y1="200.51" x2="200.51" y2="94.44"/><line class="cls-1" x1="100" y1="206.07" x2="206.07" y2="100"/><line class="cls-1" x1="206.07" y1="106.07" x2="100"/><line class="cls-1" x1="200.51" y1="111.62" x2="94.44" y2="5.56"/><line class="cls-1" x1="194.95" y1="117.18" x2="88.89" y2="11.11"/><line class="cls-1" x1="189.4" y1="122.73" x2="83.33" y2="16.67"/><line class="cls-1" x1="183.84" y1="128.29" x2="77.78" y2="22.22"/><line class="cls-1" x1="178.29" y1="133.84" x2="72.22" y2="27.78"/><line class="cls-1" x1="172.73" y1="139.4" x2="66.67" y2="33.33"/><line class="cls-1" x1="167.18" y1="144.95" x2="61.11" y2="38.89"/><line class="cls-1" x1="161.62" y1="150.51" x2="55.56" y2="44.44"/><line class="cls-1" x1="156.07" y1="156.07" x2="50" y2="50"/><line class="cls-1" x1="150.51" y1="161.62" x2="44.44" y2="55.56"/><line class="cls-1" x1="144.95" y1="167.18" x2="38.89" y2="61.11"/><line class="cls-1" x1="139.4" y1="172.73" x2="33.33" y2="66.67"/><line class="cls-1" x1="133.84" y1="178.29" x2="27.78" y2="72.22"/><line class="cls-1" x1="128.29" y1="183.84" x2="22.22" y2="77.78"/><line class="cls-1" x1="122.73" y1="189.4" x2="16.67" y2="83.33"/><line class="cls-1" x1="117.18" y1="194.95" x2="11.11" y2="88.89"/><line class="cls-1" x1="111.62" y1="200.51" x2="5.56" y2="94.44"/><line class="cls-1" x1="106.07" y1="206.07" y2="100"/></g></g></g></svg>