<svg xmlns="http://www.w3.org/2000/svg" xmlns:xlink="http://www.w3.org/1999/xlink" viewBox="0 0 206.07 206.07"><defs><style>.cls-1{fill:url(#_19-2_red);}.cls-2,.cls-4{fill:none;}.cls-3{clip-path:url(#clip-path);}.cls-4{stroke:#b61002;stroke-miterlimit:10;stroke-width:2px;}.cls-5{fill:url(#_19-2_red-3);}.cls-6{clip-path:url(#clip-path-2);}</style><pattern id="_19-2_red" data-name="19-2 red" width="100" height="100" patternUnits="userSpaceOnUse" viewBox="0 0 100 100"><rect class="cls-2" width="100" height="100"/><g class="cls-3"><line class="cls-4" x1="-53.03" y1="53.03" x2="53.03" y2="-53.03"/><line class="cls-4" x1="-47.48" y1="58.59" x2="58.59" y2="-47.48"/><line class="cls-4" x1="-41.92" y1="64.14" x2="64.14" y2="-41.92"/><line class="cls-4" x1="-36.37" y1="69.7" x2="69.7" y2="-36.37"/><line class="cls-4" x1="-30.81" y1="75.26" x2="75.26" y2="-30.81"/><line class="cls-4" x1="-25.26" y1="80.81" x2="80.81" y2="-25.26"/><line class="cls-4" x1="-19.7" y1="86.37" x2="86.37" y2="-19.7"/><line class="cls-4" x1="-14.14" y1="91.92" x2="91.92" y2="-14.14"/><line class="cls-4" x1="-8.59" y1="97.48" x2="97.48" y2="-8.59"/><line class="cls-4" x1="-3.03" y1="103.03" x2="103.03" y2="-3.03"/><line class="cls-4" x1="2.52" y1="108.59" x2="108.59" y2="2.52"/><line class="cls-4" x1="8.08" y1="114.14" x2="114.14" y2="8.08"/><line class="cls-4" x1="13.63" y1="119.7" x2="119.7" y2="13.63"/><line class="cls-4" x1="19.19" y1="125.26" x2="125.26" y2="19.19"/><line class="cls-4" x1="24.74" y1="130.81" x2="130.81" y2="24.74"/><line class="cls-4" x1="30.3" y1="136.37" x2="136.37" y2="30.3"/><line class="cls-4" x1="35.86" y1="141.92" x2="141.92" y2="35.86"/><line class="cls-4" x1="41.41" y1="147.48" x2="147.48" y2="41.41"/><line class="cls-4" x1="46.97" y1="153.03" x2="153.03" y2="46.97"/><line class="cls-4" x1="153.03" y1="53.03" x2="46.97" y2="-53.03"/><line class="cls-4" x1="147.48" y1="58.59" x2="41.41" y2="-47.48"/><line class="cls-4" x1="141.92" y1="64.14" x2="35.86" y2="-41.92"/><line class="cls-4" x1="136.37" y1="69.7" x2="30.3" y2="-36.37"/><line class="cls-4" x1="130.81" y1="75.26" x2="24.74" y2="-30.81"/><line class="cls-4" x1="125.26" y1="80.81" x2="19.19" y2="-25.26"/><line class="cls-4" x1="119.7" y1="86.37" x2="13.63" y2="-19.7"/><line class="cls-4" x1="114.14" y1="91.92" x2="8.08" y2="-14.14"/><line class="cls-4" x1="108.59" y1="97.48" x2="2.52" y2="-8.59"/><line class="cls-4" x1="103.03" y1="103.03" x2="-3.03" y2="-3.03"/><line class="cls-4" x1="97.48" y1="108.59" x2="-8.59" y2="2.52"/><line class="cls-4" x1="91.92" y1="114.14" x2="-14.14" y2="8.08"/><line class="cls-4" x1="86.37" y1="119.7" x2="-19.7" y2="13.63"/><line class="cls-4" x1="80.81" y1="125.26" x2="-25.26" y2="19.19"/><line class="cls-4" x1="75.26" y1="130.81" x2="-30.81" y2="24.74"/><line class="cls-4" x1="69.7" y1="136.37" x2="-36.37" y2="30.3"/><line class="cls-4" x1="64.14" y1="141.92" x2="-41.92" y2="35.86"/><line class="cls-4" x1="58.59" y1="147.48" x2="-47.48" y2="41.41"/><line class="cls-4" x1="53.03" y1="153.03" x2="-53.03" y2="46.97"/></g></pattern><clipPath id="clip-path"><rect class="cls-2" width="100" height="100"/></clipPath><pattern id="_19-2_red-3" data-name="19-2 red" x="53.03" y="53.03" width="100" height="100" patternUnits="userSpaceOnUse" viewBox="0 0 100 100"><rect class="cls-2" width="100" height="100"/><g class="cls-3"><line class="cls-4" x1="-53.03" y1="53.03" x2="53.03" y2="-53.03"/><line class="cls-4" x1="-47.48" y1="58.59" x2="58.59" y2="-47.48"/><line class="cls-4" x1="-41.92" y1="64.14" x2="64.14" y2="-41.92"/><line class="cls-4" x1="-36.37" y1="69.7" x2="69.7" y2="-36.37"/><line class="cls-4" x1="-30.81" y1="75.26" x2="75.26" y2="-30.81"/><line class="cls-4" x1="-25.26" y1="80.81" x2="80.81" y2="-25.26"/><line class="cls-4" x1="-19.7" y1="86.37" x2="86.37" y2="-19.7"/><line class="cls-4" x1="-14.14" y1="91.92" x2="91.92" y2="-14.14"/><line class="cls-4" x1="-8.59" y1="97.48" x2="97.48" y2="-8.59"/><line class="cls-4" x1="-3.03" y1="103.03" x2="103.03" y2="-3.03"/><line class="cls-4" x1="2.52" y1="108.59" x2="108.59" y2="2.52"/><line class="cls-4" x1="8.08" y1="114.14" x2="114.14" y2="8.08"/><line class="cls-4" x1="13.63" y1="119.7" x2="119.7" y2="13.63"/><line class="cls-4" x1="19.19" y1="125.26" x2="125.26" y2="19.19"/><line class="cls-4" x1="24.74" y1="130.81" x2="130.81" y2="24.74"/><line class="cls-4" x1="30.3" y1="136.37" x2="136.37" y2="30.3"/><line class="cls-4" x1="35.86" y1="141.92" x2="141.92" y2="35.86"/><line class="cls-4" x1="41.41" y1="147.48" x2="147.48" y2="41.41"/><line class="cls-4" x1="46.97" y1="153.03" x2="153.03" y2="46.97"/><line class="cls-4" x1="153.03" y1="53.03" x2="46.97" y2="-53.03"/><line class="cls-4" x1="147.48" y1="58.59" x2="41.41" y2="-47.48"/><line class="cls-4" x1="141.92" y1="64.14" x2="35.86" y2="-41.92"/><line class="cls-4" x1="136.37" y1="69.7" x2="30.3" y2="-36.37"/><line class="cls-4" x1="130.81" y1="75.26" x2="24.74" y2="-30.81"/><line class="cls-4" x1="125.26" y1="80.81" x2="19.19" y2="-25.26"/><line class="cls-4" x1="119.7" y1="86.37" x2="13.63" y2="-19.7"/><line class="cls-4" x1="114.14" y1="91.92" x2="8.08" y2="-14.14"/><line class="cls-4" x1="108.59" y1="97.48" x2="2.52" y2="-8.59"/><line class="cls-4" x1="103.03" y1="103.03" x2="-3.03" y2="-3.03"/><line class="cls-4" x1="97.48" y1="108.59" x2="-8.59" y2="2.52"/><line class="cls-4" x1="91.92" y1="114.14" x2="-14.14" y2="8.08"/><line class="cls-4" x1="86.37" y1="119.7" x2="-19.7" y2="13.63"/><line class="cls-4" x1="80.81" y1="125.26" x2="-25.26" y2="19.19"/><line class="cls-4" x1="75.26" y1="130.81" x2="-30.81" y2="24.74"/><line class="cls-4" x1="69.7" y1="136.37" x2="-36.37" y2="30.3"/><line class="cls-4" x1="64.14" y1="141.92" x2="-41.92" y2="35.86"/><line class="cls-4" x1="58.59" y1="147.48" x2="-47.48" y2="41.41"/><line class="cls-4" x1="53.03" y1="153.03" x2="-53.03" y2="46.97"/></g></pattern><clipPath id="clip-path-2" transform="translate(53.03 53.03)"><rect class="cls-1" width="100" height="100"/></clipPath></defs><title>Asset 2</title><g id="Layer_2" data-name="Layer 2"><g id="build"><rect class="cls-5" x="53.03" y="53.03" width="100" height="100"/><g class="cls-6"><line class="cls-5" y1="106.07" x2="106.07"/><line class="cls-5" x1="5.56" y1="111.62" x2="111.62" y2="5.56"/><line class="cls-5" x1="11.11" y1="117.18" x2="117.18" y2="11.11"/><line class="cls-5" x1="16.67" y1="122.73" x2="122.73" y2="16.67"/><line class="cls-5" x1="22.22" y1="128.29" x2="128.29" y2="22.22"/><line class="cls-5" x1="27.78" y1="133.84" x2="133.84" y2="27.78"/><line class="cls-5" x1="33.33" y1="139.4" x2="139.4" y2="33.33"/><line class="cls-5" x1="38.89" y1="144.95" x2="144.95" y2="38.89"/><line class="cls-5" x1="44.44" y1="150.51" x2="150.51" y2="44.44"/><line class="cls-5" x1="50" y1="156.07" x2="156.07" y2="50"/><line class="cls-5" x1="55.56" y1="161.62" x2="161.62" y2="55.56"/><line class="cls-5" x1="61.11" y1="167.18" x2="167.18" y2="61.11"/><line class="cls-5" x1="66.67" y1="172.73" x2="172.73" y2="66.67"/><line class="cls-5" x1="72.22" y1="178.29" x2="178.29" y2="72.22"/><line class="cls-5" x1="77.78" y1="183.84" x2="183.84" y2="77.78"/><line class="cls-5" x1="83.33" y1="189.4" x2="189.4" y2="83.33"/><line class="cls-5" x1="88.89" y1="194.95" x2="194.95" y2="88.89"/><line class="cls-5" x1="94.44" y1="200.51" x2="200.51" y2="94.44"/><line class="cls-5" x1="100" y1="206.07" x2="206.07" y2="100"/><line class="cls-5" x1="206.07" y1="106.07" x2="100"/><line class="cls-5" x1="200.51" y1="111.62" x2="94.44" y2="5.56"/><line class="cls-5" x1="194.95" y1="117.18" x2="88.89" y2="11.11"/><line class="cls-5" x1="189.4" y1="122.73" x2="83.33" y2="16.67"/><line class="cls-5" x1="183.84" y1="128.29" x2="77.78" y2="22.22"/><line class="cls-5" x1="178.29" y1="133.84" x2="72.22" y2="27.78"/><line class="cls-5" x1="172.73" y1="139.4" x2="66.67" y2="33.33"/><line class="cls-5" x1="167.18" y1="144.95" x2="61.11" y2="38.89"/><line class="cls-5" x1="161.62" y1="150.51" x2="55.56" y2="44.44"/><line class="cls-5" x1="156.07" y1="156.07" x2="50" y2="50"/><line class="cls-5" x1="150.51" y1="161.62" x2="44.44" y2="55.56"/><line class="cls-5" x1="144.95" y1="167.18" x2="38.89" y2="61.11"/><line class="cls-5" x1="139.4" y1="172.73" x2="33.33" y2="66.67"/><line class="cls-5" x1="133.84" y1="178.29" x2="27.78" y2="72.22"/><line class="cls-5" x1="128.29" y1="183.84" x2="22.22" y2="77.78"/><line class="cls-5" x1="122.73" y1="189.4" x2="16.67" y2="83.33"/><line class="cls-5" x1="117.18" y1="194.95" x2="11.11" y2="88.89"/><line class="cls-5" x1="111.62" y1="200.51" x2="5.56" y2="94.44"/><line class="cls-5" x1="106.07" y1="206.07" y2="100"/></g></g></g></svg>